{"title":"Bee Movie (2007)  m-HD  480p  AC3  Hindi [.Dude.]","uid":6652798,"size":419298447,"categoryP":"video","categoryS":"movies","magnet":"?xt=urn:btih:252a31fed571174aa509fb23dc2d8c7dc913c99b&amp;dn=Bee+Movie+%282007%29++m-HD++480p++AC3++Hindi+%5B.Dude.%5D&amp;tr=udp%3A%2F%2Ftracker.openbittorrent.com%3A80&amp;tr=udp%3A%2F%2Fopen.demonii.com%3A1337&amp;tr=udp%3A%2F%2Ftracker.coppersurfer.tk%3A6969&amp;tr=udp%3A%2F%2Fexodus.desync.com%3A6969","seeders":0,"leechers":1,"uploader":".Dude.","files":-1,"time":1315223418,"description":"Bee Movie (2007) | m-HD | 480p | AC3 | Hindi | BHATTI87\n\nGeneral\nUnique ID                       : 181524777861219133785478600684780165653 (0x88906689569B851D99C8605FB3589A15)\nComplete name                   :Movie (2007)  m-HD  480p  AC3  Hindi  BHATTI87\\Bee Movie (2007)  m-HD  480p  AC3  Hindi  BHATTI87.mkv\nFormat                          : Matroska\nFile size                       : 396 MiB\nDuration                        : 1h 26mn\nOverall bit rate                : 637 Kbps\nEncoded date                    : UTC 2011-09-04 21:35:48\nWriting application             : mkvmerge v4.9.1 ('Ich will') built on Jul 11 2011 23:53:15\nWriting library                 : libebml v1.2.1 + libmatroska v1.1.1\n\nVideo\nID                              : 1\nFormat                          : AVC\nFormat/Info                     : Advanced Video Codec\nFormat profile                  : &lt;a class=&quot;__cf_email__&quot; href=&quot;/cdn-cgi/l/email-protection&quot; data-cfemail=&quot;2a62434d426a6619041b&quot;&gt;[email&amp;#160;protected]&lt;/a&gt;&lt;script data-cfhash='f9e31' type=&quot;text/javascript&quot;&gt;\n/* &lt;![CDATA[ */!function(){try{var t=&quot;currentScript&quot;in document?document.currentScript:function(){for(var t=document.getElementsByTagName(&quot;script&quot;),e=t.length;e--;)if(t[e].getAttribute(&quot;data-cfhash&quot;))return t[e]}();if(t&amp;&amp;t.previousSibling){var e,r,n,i,c=t.previousSibling,a=c.getAttribute(&quot;data-cfemail&quot;);if(a){for(e=&quot;&quot;,r=parseInt(a.substr(0,2),16),n=2;a.length-n;n+=2)i=parseInt(a.substr(n,2),16)^r,e+=String.fromCharCode(i);e=document.createTextNode(e),c.parentNode.replaceChild(e,c)}t.parentNode.removeChild(t);}}catch(u){}}()/* ]]&gt; */&lt;/script&gt;\nFormat settings, CABAC          : Yes\nFormat settings, ReFrames       : 5 frames\nFormat settings, GOP            : M=1, N=32\nCodec ID                        : V_MPEG4/ISO/AVC\nDuration                        : 1h 26mn\nBit rate                        : 507 Kbps\nWidth                           : 848 pixels\nHeight                          : 368 pixels\nDisplay aspect ratio            : 2.35:1\nFrame rate                      : 23.976 fps\nColor space                     : YUV\nChroma subsampling              : 4:2:0\nBit depth                       : 8 bits\nScan type                       : Progressive\nBits/(Pixel*Frame)              : 0.068\nStream size                     : 309 MiB (78%)\nWriting library                 : x264 core 116 r2074 2641b9e\n\nAudio\nID                              : 2\nFormat                          : AC-3\nFormat/Info                     : Audio Coding 3\nMode extension                  : CM (complete main)\nCodec ID                        : A_AC3\nDuration                        : 1h 26mn\nBit rate mode                   : Constant\nBit rate                        : 128 Kbps\nChannel(s)                      : 2 channels\nChannel positions               : Front: L R\nSampling rate                   : 48.0 KHz\nBit depth                       : 16 bits\nCompression mode                : Lossy\nStream size                     : 79.6 MiB (20%)\n\n\nScreens: &lt;a href=&quot;\nhttp://img708.imageshack.us/img708/7661/beemovie2007mhd480pac3h.jpg&quot; rel=&quot;nofollow&quot; target=&quot;_NEW&quot;&gt;\nhttp://img708.imageshack.us/img708/7661/beemovie2007mhd480pac3h.jpg&lt;/a&gt; &lt;a href=&quot;\nhttp://img33.imageshack.us/img33/7661/beemovie2007mhd480pac3h.jpg&quot; rel=&quot;nofollow&quot; target=&quot;_NEW&quot;&gt;\nhttp://img33.imageshack.us/img33/7661/beemovie2007mhd480pac3h.jpg&lt;/a&gt; &lt;a href=&quot;\nhttp://img263.imageshack.us/img263/7661/beemovie2007mhd480pac3h.jpg&quot; rel=&quot;nofollow&quot; target=&quot;_NEW&quot;&gt;\nhttp://img263.imageshack.us/img263/7661/beemovie2007mhd480pac3h.jpg&lt;/a&gt; &lt;a href=&quot;\nhttp://img854.imageshack.us/img854/7661/beemovie2007mhd480pac3h.jpg&quot; rel=&quot;nofollow&quot; target=&quot;_NEW&quot;&gt;\nhttp://img854.imageshack.us/img854/7661/beemovie2007mhd480pac3h.jpg&lt;/a&gt; &lt;a href=&quot;\nhttp://img585.imageshack.us/img585/7661/beemovie2007mhd480pac3h.jpg&quot; rel=&quot;nofollow&quot; target=&quot;_NEW&quot;&gt;\nhttp://img585.imageshack.us/img585/7661/beemovie2007mhd480pac3h.jpg&lt;/a&gt; &lt;a href=&quot;\nhttp://img594.imageshack.us/img594/7661/beemovie2007mhd480pac3h.jpg&quot; rel=&quot;nofollow&quot; target=&quot;_NEW&quot;&gt;\nhttp://img594.imageshack.us/img594/7661/beemovie2007mhd480pac3h.jpg&lt;/a&gt; &lt;a href=&quot;\nhttp://img851.imageshack.us/img851/7661/beemovie2007mhd480pac3h.jpg&quot; rel=&quot;nofollow&quot; target=&quot;_NEW&quot;&gt;\nhttp://img851.imageshack.us/img851/7661/beemovie2007mhd480pac3h.jpg&lt;/a&gt;\n\n ~ Seed 4 others,Others would seed 4 u ~\n         Be a Gentleman!!\n\n    ______            ______   _______    \n   (  __  \\ |\\     /|(  __  \\ (  ____ \\   \n   | (  \\  )| )   ( || (  \\  )| (    \\/   \n   | |   ) || |   | || |   ) || (__       \n   | |   | || |   | || |   | ||  __)      \n   | |   ) || |   | || |   ) || (         \n _ | (__/  )| (___) || (__/  )| (____/\\ _ \n(_)(______/ (_______)(______/ (_______/(_)\n\n\nA simple THANKS goes a long way... :-)\nAny comments would b appreciated.\n\n","torrent":{"xt":"urn:btih:252a31fed571174aa509fb23dc2d8c7dc913c99b","amp;dn":"Bee+Movie+%282007%29++m-HD++480p++AC3++Hindi+%5B.Dude.%5D","amp;tr":["udp%3A%2F%2Ftracker.openbittorrent.com%3A80","udp%3A%2F%2Fopen.demonii.com%3A1337","udp%3A%2F%2Ftracker.coppersurfer.tk%3A6969","udp%3A%2F%2Fexodus.desync.com%3A6969"],"infoHash":"252a31fed571174aa509fb23dc2d8c7dc913c99b","infoHashBuffer":{"type":"Buffer","data":[37,42,49,254,213,113,23,74,165,9,251,35,220,45,140,125,201,19,201,155]},"announce":[],"urlList":[]}}